<svg width="282" height="78" viewBox="0 0 282 78" fill="none" xmlns="http://www.w3.org/2000/svg">
<rect width="282" height="78" fill="white"/>
<path d="M100.54 39.4H103.096V49.012C101.92 50.044 100.528 50.836 98.9195 51.388C97.3115 51.94 95.6195 52.216 93.8435 52.216C91.3235 52.216 89.0555 51.664 87.0395 50.56C85.0235 49.456 83.4395 47.932 82.2875 45.988C81.1355 44.02 80.5595 41.824 80.5595 39.4C80.5595 36.976 81.1355 34.792 82.2875 32.848C83.4395 30.88 85.0235 29.344 87.0395 28.24C89.0555 27.136 91.3355 26.584 93.8795 26.584C95.7995 26.584 97.5635 26.896 99.1715 27.52C100.78 28.12 102.136 29.02 103.24 30.22L101.584 31.912C99.5915 29.944 97.0595 28.96 93.9875 28.96C91.9475 28.96 90.0995 29.416 88.4435 30.328C86.8115 31.216 85.5275 32.464 84.5915 34.072C83.6555 35.656 83.1875 37.432 83.1875 39.4C83.1875 41.368 83.6555 43.144 84.5915 44.728C85.5275 46.312 86.8115 47.56 88.4435 48.472C90.0755 49.384 91.9115 49.84 93.9515 49.84C96.5435 49.84 98.7395 49.192 100.54 47.896V39.4Z" fill="#5244F0"/>
<path d="M108.691 41.128H118.123V43.36H108.691V41.128ZM132.041 52.18C130.169 52.18 128.489 51.772 127.001 50.956C125.537 50.14 124.385 49 123.545 47.536C122.705 46.048 122.285 44.38 122.285 42.532C122.285 40.684 122.705 39.028 123.545 37.564C124.385 36.1 125.537 34.96 127.001 34.144C128.489 33.328 130.169 32.92 132.041 32.92C133.673 32.92 135.125 33.244 136.397 33.892C137.693 34.516 138.713 35.44 139.457 36.664L137.549 37.96C136.925 37.024 136.133 36.328 135.173 35.872C134.213 35.392 133.169 35.152 132.041 35.152C130.673 35.152 129.437 35.464 128.333 36.088C127.253 36.688 126.401 37.552 125.777 38.68C125.177 39.808 124.877 41.092 124.877 42.532C124.877 43.996 125.177 45.292 125.777 46.42C126.401 47.524 127.253 48.388 128.333 49.012C129.437 49.612 130.673 49.912 132.041 49.912C133.169 49.912 134.213 49.684 135.173 49.228C136.133 48.772 136.925 48.076 137.549 47.14L139.457 48.436C138.713 49.66 137.693 50.596 136.397 51.244C135.101 51.868 133.649 52.18 132.041 52.18ZM153.845 32.92C156.221 32.92 158.105 33.616 159.497 35.008C160.913 36.376 161.621 38.38 161.621 41.02V52H159.065V41.272C159.065 39.304 158.573 37.804 157.589 36.772C156.605 35.74 155.201 35.224 153.377 35.224C151.337 35.224 149.717 35.836 148.517 37.06C147.341 38.26 146.753 39.928 146.753 42.064V52H144.197V25.288H146.753V36.376C147.449 35.272 148.409 34.42 149.633 33.82C150.857 33.22 152.261 32.92 153.845 32.92ZM175.184 32.92C177.656 32.92 179.552 33.544 180.872 34.792C182.192 36.016 182.852 37.84 182.852 40.264V52H180.404V49.048C179.828 50.032 178.976 50.8 177.848 51.352C176.744 51.904 175.424 52.18 173.888 52.18C171.776 52.18 170.096 51.676 168.848 50.668C167.6 49.66 166.976 48.328 166.976 46.672C166.976 45.064 167.552 43.768 168.704 42.784C169.88 41.8 171.74 41.308 174.284 41.308H180.296V40.156C180.296 38.524 179.84 37.288 178.928 36.448C178.016 35.584 176.684 35.152 174.932 35.152C173.732 35.152 172.58 35.356 171.476 35.764C170.372 36.148 169.424 36.688 168.632 37.384L167.48 35.476C168.44 34.66 169.592 34.036 170.936 33.604C172.28 33.148 173.696 32.92 175.184 32.92ZM174.284 50.164C175.724 50.164 176.96 49.84 177.992 49.192C179.024 48.52 179.792 47.56 180.296 46.312V43.216H174.356C171.116 43.216 169.496 44.344 169.496 46.6C169.496 47.704 169.916 48.58 170.756 49.228C171.596 49.852 172.772 50.164 174.284 50.164ZM199.766 50.848C199.286 51.28 198.686 51.616 197.966 51.856C197.27 52.072 196.538 52.18 195.77 52.18C193.994 52.18 192.626 51.7 191.666 50.74C190.706 49.78 190.226 48.424 190.226 46.672V35.224H186.842V33.064H190.226V28.924H192.782V33.064H198.542V35.224H192.782V46.528C192.782 47.656 193.058 48.52 193.61 49.12C194.186 49.696 195.002 49.984 196.058 49.984C196.586 49.984 197.09 49.9 197.57 49.732C198.074 49.564 198.506 49.324 198.866 49.012L199.766 50.848Z" fill="black"/>
</svg>
